<?xml version="1.0" ?><svg enable-background="new 0 0 32 32" id="Filled_Outline" version="1.1" viewBox="0 0 32 32" xml:space="preserve" xmlns="http://www.w3.org/2000/svg" xmlns:xlink="http://www.w3.org/1999/xlink"><title/><desc/><g><g><path d="M23,16c0,5.055-4.168,9.137-9.255,8.996c-4.696-0.13-8.611-4.045-8.741-8.741C4.863,11.168,8.945,7,14,7v3    c0,3.314,2.686,6,6,6H23z" fill="#FFF3AE"/><polygon fill="#FFF3AE" points="4,1 3,3 1,4 3,5 4,7 5,5 7,4 5,3   "/><path d="M31,25c0,3.721-3.399,6.658-7.257,5.872c-2.274-0.464-4.12-2.293-4.603-4.563    c-0.485-2.275,0.333-4.415,1.861-5.769V5c0-2.209,1.791-4,4-4h0c2.209,0,4,1.791,4,4v15.54C30.23,21.63,31,23.23,31,25z" fill="#C9F9FB"/><path d="M26,22.184V19h-2v3.184c-1.163,0.413-2,1.512-2,2.816c0,1.657,1.343,3,3,3s3-1.343,3-3    C28,23.696,27.163,22.597,26,22.184z" fill="#D62144"/></g><g><path d="M4.895,7.447l0.851-1.702l1.702-0.851C7.786,4.725,8,4.379,8,4S7.786,3.275,7.447,3.105L5.745,2.255    L4.895,0.553c-0.339-0.678-1.45-0.678-1.789,0L2.255,2.255L0.553,3.105C0.214,3.275,0,3.621,0,4s0.214,0.725,0.553,0.895    l1.702,0.851l0.851,1.702C3.275,7.786,3.621,8,4,8S4.725,7.786,4.895,7.447z M4.105,4.553L4,4.764L3.895,4.553    C3.798,4.359,3.641,4.202,3.447,4.105L3.236,4l0.211-0.105c0.193-0.097,0.351-0.254,0.447-0.447L4,3.236l0.105,0.211    c0.097,0.193,0.254,0.351,0.447,0.447L4.764,4L4.553,4.105C4.359,4.202,4.202,4.359,4.105,4.553z" fill="#1A1A1A"/><path d="M30,20.111V5c0-2.757-2.243-5-5-5s-5,2.243-5,5v10c-2.757,0-5-2.243-5-5V7c0-0.553-0.448-1-1-1    c-2.724,0-5.27,1.075-7.169,3.028c-1.898,1.951-2.903,4.528-2.827,7.254c0.144,5.212,4.501,9.569,9.713,9.714    C13.813,25.998,13.909,26,14.004,26c1.397,0,2.751-0.302,4.009-0.855c0.01,0.454,0.05,0.912,0.148,1.372    c0.564,2.649,2.727,4.794,5.381,5.335c0.482,0.099,0.966,0.146,1.445,0.146c1.612,0,3.174-0.545,4.435-1.575    C31.061,29.086,32,27.109,32,25C32,23.162,31.276,21.405,30,20.111z M20,20.11c-0.733,0.739-1.263,1.617-1.597,2.566    c-1.374,0.909-2.975,1.384-4.631,1.319c-4.169-0.115-7.654-3.601-7.77-7.769c-0.06-2.182,0.743-4.243,2.262-5.805    c1.285-1.32,2.938-2.14,4.735-2.361V10c0,3.859,3.14,7,7,7V20.11z M28.158,28.874c-1.169,0.956-2.705,1.323-4.216,1.019    c-1.887-0.385-3.424-1.909-3.825-3.793c-0.387-1.812,0.191-3.611,1.545-4.812C21.877,21.099,22,20.826,22,20.54V5    c0-1.654,1.346-3,3-3s3,1.346,3,3v15.54c0,0.286,0.123,0.559,0.337,0.748C29.394,22.225,30,23.578,30,25    C30,26.506,29.329,27.918,28.158,28.874z" fill="#1A1A1A"/></g></g></svg>